<svg width="320" height="66" viewBox="0 0 320 66" fill="none" xmlns="http://www.w3.org/2000/svg">
<g clip-path="url(#clip0)">
<path d="M78.2582 20.6454H74.5627V19.135H75.8887C77.0931 19.1569 78.2977 19.1133 79.4973 19.0046C80.7135 18.9333 81.921 18.7551 83.1059 18.4722V23.4162L83.2363 23.351C83.9504 21.9055 85.0499 20.6851 86.4134 19.8242C87.777 18.9634 89.3518 18.4955 90.9643 18.4722C95.8446 18.4722 102.747 22.2753 102.747 32.2828C102.747 38.4873 98.5619 45.0069 90.7143 45.0069C89.214 45.068 87.7271 44.7022 86.4265 43.952C85.1259 43.2019 84.0648 42.0982 83.3667 40.7692H83.2363V57.0682H87.584V58.5351H74.5627V57.0573H78.2582V20.6454ZM83.1928 32.9891C83.1928 37.1725 83.4537 38.2483 84.4645 40.1498C85.0718 41.1686 85.9091 42.0313 86.9093 42.669C87.9095 43.3067 89.0451 43.7017 90.2252 43.8225C93.486 43.8225 96.9424 43.6921 96.9424 32.1633C96.9424 23.0467 95.1055 20.0695 90.4208 20.0695C89.2144 20.0695 84.3993 21.0148 83.4537 27.165C83.2326 29.0798 83.1599 31.0088 83.2363 32.9348L83.1928 32.9891Z" fill="#1A1A1A"/>
<path d="M113.985 24.4485H114.127C115.213 21.6016 117.789 18.4722 121.268 18.4722C123.441 18.4722 125.126 19.6131 125.126 22.0253C125.126 23.6009 123.485 24.3615 122.148 24.3615C121.506 24.2928 120.909 24.0022 120.458 23.54C120.008 23.0778 119.733 22.473 119.681 21.8298C119.741 21.3838 119.824 20.9413 119.931 20.5041C119.931 20.1238 119.561 20.1238 119.366 20.1238C117.745 20.9068 116.463 22.2501 115.757 23.9052C114.722 26.0296 114.165 28.3553 114.127 30.7181V42.7576H119.007V44.2137H104.877V42.7576H109.225V20.6454H104.877V19.135H106.844C109.227 19.2103 111.611 18.995 113.942 18.4939L113.985 24.4485Z" fill="#1A1A1A"/>
<path d="M150.343 31.7395C150.343 39.3457 144.767 45.0286 138.115 45.0286C131.463 45.0286 125.887 39.3892 125.887 31.7395C125.887 24.0899 131.517 18.4722 138.115 18.4722C144.712 18.4722 150.343 24.0682 150.343 31.7395ZM131.659 31.7395C131.659 37.053 131.724 43.7682 138.115 43.7682C144.506 43.7682 144.636 37.053 144.636 31.7395C144.636 26.4261 144.571 19.787 138.115 19.787C131.659 19.787 131.659 26.4804 131.659 31.7395Z" fill="#1A1A1A"/>
<path d="M155.245 20.6454H151.517V19.135H152.843C154.047 19.1567 155.252 19.1131 156.451 19.0046C157.667 18.9405 158.874 18.7696 160.06 18.4939V23.4379L160.19 23.3727C160.9 21.9224 161.998 20.6968 163.362 19.8319C164.726 18.9669 166.303 18.4963 167.918 18.4722C172.798 18.4722 179.7 22.2753 179.7 32.2828C179.7 38.4873 175.516 45.0069 167.668 45.0069C166.168 45.068 164.681 44.7022 163.38 43.952C162.08 43.2019 161.019 42.0982 160.321 40.7692H160.19V57.0682H164.538V58.5351H151.517V57.0573H155.245V20.6454ZM160.19 32.9891C160.19 37.1725 160.44 38.2483 161.451 40.1498C162.059 41.17 162.898 42.0335 163.901 42.6713C164.903 43.309 166.041 43.7033 167.223 43.8225C170.483 43.8225 173.94 43.6921 173.94 32.1633C173.94 23.0467 172.103 20.0695 167.418 20.0695C166.223 20.0695 161.408 21.0148 160.451 27.165C160.215 29.0786 160.128 31.0077 160.19 32.9348V32.9891Z" fill="#1A1A1A"/>
<path d="M207.069 36.3576C205.797 42.2469 201.493 45.0504 195.917 45.0504C189.461 45.0504 183.244 39.8673 183.244 32.837C183.244 25.3612 188.189 18.5156 195.722 18.5156C202.243 18.5156 207.069 22.862 207.134 29.7945H189.2V32.3915C189.2 38.6612 190.026 43.7247 196.928 43.7247C198.967 43.5717 200.905 42.7792 202.466 41.4602C204.027 40.1412 205.132 38.3631 205.623 36.3793L207.069 36.3576ZM201.363 27.9364V25.7632C201.363 21.2104 198.711 19.7543 195.537 19.7543C194.314 19.8101 193.132 20.2154 192.132 20.9222C191.132 21.629 190.356 22.6077 189.896 23.7422C189.504 25.1032 189.292 26.5096 189.265 27.9256L201.363 27.9364Z" fill="#1A1A1A"/>
<path d="M218.743 24.4485H218.873C219.96 21.6016 222.547 18.4939 226.025 18.4939C228.199 18.4939 229.894 19.6348 229.894 22.0471C229.894 23.6226 228.253 24.3833 226.916 24.3833C226.274 24.3165 225.675 24.0266 225.224 23.564C224.773 23.1014 224.499 22.4954 224.449 21.8515C224.509 21.4055 224.592 20.963 224.699 20.5258C224.699 20.1455 224.318 20.1455 224.134 20.1455C222.512 20.9202 221.227 22.2558 220.514 23.9052C219.499 26.0421 218.961 28.3743 218.938 30.7399V42.7576H223.818V44.2137H209.689V42.7576H214.036V20.6454H209.689V19.135H211.645C214.028 19.2111 216.412 18.9958 218.743 18.4939V24.4485Z" fill="#1A1A1A"/>
<path d="M232.286 19.1349H236.035V11.344C237.645 11.3869 239.255 11.3033 240.851 11.0941V19.1349H246.426V20.6453H240.851V39.965C240.851 41.0516 240.851 42.8119 243.253 42.8119C244.894 42.8119 245.785 41.7253 246.796 40.4757L247.807 41.1712C247.096 42.3481 246.093 43.3215 244.895 43.9973C243.697 44.6731 242.345 45.0283 240.97 45.0286C236.405 45.0286 235.905 42.562 235.905 39.5195V20.6453H232.286V19.1349Z" fill="#1A1A1A"/>
<path d="M251.078 44.2137V42.7576H255.317V20.6454H251.078V19.135H253.165C255.548 19.2103 257.932 18.995 260.263 18.4939V42.7576H264.002V44.2137H251.078ZM257.73 2.41223C258.554 2.42782 259.342 2.74715 259.944 3.30879C260.546 3.87044 260.919 4.63474 260.991 5.45471C261.014 5.89328 260.945 6.33179 260.791 6.74284C260.636 7.1539 260.399 7.52867 260.093 7.84375C259.787 8.15883 259.419 8.40746 259.012 8.57411C258.606 8.74075 258.17 8.82184 257.73 8.8123C257.303 8.80487 256.882 8.70986 256.494 8.53314C256.105 8.35642 255.756 8.10176 255.47 7.78494C255.184 7.46812 254.965 7.0959 254.829 6.69133C254.692 6.28676 254.64 5.85846 254.676 5.43298C254.703 4.6368 255.034 3.88103 255.599 3.31974C256.165 2.75845 256.923 2.43389 257.719 2.41223H257.73Z" fill="#1A1A1A"/>
<path d="M289.338 36.3576C288.077 42.2469 283.762 45.0504 278.186 45.0504C271.73 45.0504 265.524 39.8673 265.524 32.837C265.524 25.3612 270.458 18.5156 278.001 18.5156C284.458 18.5156 289.338 22.862 289.403 29.7945H271.48V32.3915C271.48 38.6612 272.306 43.7247 279.197 43.7247C281.246 43.5844 283.197 42.7975 284.769 41.4774C286.342 40.1573 287.454 38.3722 287.947 36.3793L289.338 36.3576ZM283.686 27.9364V25.7632C283.686 21.2104 281.023 19.7543 277.849 19.7543C276.627 19.8095 275.447 20.2147 274.448 20.9217C273.45 21.6288 272.676 22.6078 272.219 23.7422C271.817 25.1008 271.604 26.5087 271.589 27.9256L283.686 27.9364Z" fill="#1A1A1A"/>
<path d="M310.305 19.135V26.2196H308.913C307.968 22.5469 305.816 19.9499 302.011 19.7652C296.816 19.6348 296.055 23.6226 296.055 24.3833C296.055 26.2196 296.555 27.1758 306.25 29.1317C311.131 30.1531 312.837 32.3915 312.837 36.3576C312.837 41.7906 308.729 45.0504 303.718 45.0504C302.357 45.0586 301.009 44.7881 299.756 44.2555C298.504 43.7229 297.374 42.9395 296.436 41.9536L295.033 44.2354H293.653V35.8577H295.11C296.305 40.4215 299.457 43.779 304.098 43.779C306.946 43.779 310.239 41.6058 310.239 38.3461C310.239 35.8686 306.761 34.7277 301.544 33.402C297.37 32.3915 293.697 31.8156 293.697 26.3065C293.697 23.6444 295.338 18.5156 302.24 18.5156C304.417 18.586 306.502 19.4164 308.131 20.8627L309.272 19.1567L310.305 19.135Z" fill="#1A1A1A"/>
<path d="M28.8686 50.6029C20.9775 50.6029 16.5647 45.811 16.5647 37.5637C16.6195 34.5473 17.31 31.5762 18.5911 28.8445C19.8721 26.1129 21.7149 23.6819 23.9992 21.7103C27.2374 18.6517 31.5011 16.9119 35.9553 16.8314C40.7595 16.8314 43.4659 19.0046 44.1615 23.4923L45.9441 17.5269H53.8351L47.2919 41.0843C46.975 42.1699 46.7925 43.2902 46.7484 44.4202C46.7484 46.7346 47.8353 48.1255 49.3788 48.1255C50.6178 48.1255 53.7264 46.8868 56.422 44.4962C61.3023 40.0847 63.9326 33.6303 63.9326 26.1545C63.9326 20.0369 62.2261 15.0929 58.8241 11.3767C53.8677 5.87853 46.868 2.93385 38.6291 2.93385C31.8793 2.84968 25.282 4.94146 19.8145 8.89927C11.4561 14.9408 6.77151 24.4485 6.77151 35.5861C6.81499 52.5371 17.8798 63.0227 35.6075 63.0227C44.1941 63.0227 51.5526 60.3932 59.4436 55.2101L60.9979 57.3833C53.6979 62.9373 44.7811 65.952 35.6075 65.9674C13.543 66 0 53.5476 0 34.8255C0.0120078 29.7641 1.17481 24.7717 3.40051 20.2256C5.62621 15.6795 8.85657 11.6987 12.8474 8.58416C19.8121 2.90681 28.5566 -0.132874 37.5422 3.02088e-05C55.1829 3.02088e-05 66.639 10.4422 66.639 26.2305C66.639 34.5865 63.5413 41.6276 57.9437 46.6586C55.1808 49.2219 51.5714 50.6799 47.8027 50.755C42.9225 50.755 39.7486 47.9734 39.4443 43.3336C36.3031 48.2015 32.738 50.6029 28.8686 50.6029ZM29.8794 26.5456C26.7817 32.6523 25.3904 38.1396 25.3904 41.8558C25.3904 45.572 27.2491 47.7452 29.8794 47.7452C32.8141 47.7452 35.6836 44.7244 38.3139 38.6069C40.3077 34.2698 41.4867 29.6031 41.7921 24.8397C41.7921 21.4386 40.3247 19.5697 37.7705 19.5697C34.5966 19.5588 32.1946 21.895 29.8794 26.5456Z" fill="#D22630"/>
<path d="M317.044 18.2984C317.555 18.3007 318.057 18.4355 318.5 18.6895C318.961 18.9376 319.339 19.3154 319.587 19.7761C319.841 20.2312 319.976 20.7434 319.978 21.2648C319.981 21.7785 319.85 22.2841 319.598 22.7317C319.347 23.1902 318.97 23.5672 318.511 23.8183C318.062 24.0746 317.555 24.2095 317.038 24.2095C316.522 24.2095 316.014 24.0746 315.565 23.8183C315.107 23.5672 314.73 23.1902 314.478 22.7317C314.219 22.2824 314.082 21.7727 314.082 21.2539C314.082 20.7351 314.219 20.2254 314.478 19.7761C314.727 19.3154 315.104 18.9376 315.565 18.6895C316.015 18.4313 316.525 18.2964 317.044 18.2984ZM317.044 18.7982C316.621 18.7972 316.205 18.9058 315.837 19.1133C315.449 19.3242 315.129 19.6406 314.913 20.0261C314.693 20.4016 314.576 20.8292 314.576 21.2648C314.577 21.6953 314.69 22.1183 314.902 22.4926C315.113 22.8776 315.43 23.1943 315.815 23.4054C316.19 23.6166 316.613 23.7288 317.044 23.7314C317.474 23.7313 317.898 23.6189 318.272 23.4054C318.657 23.1943 318.974 22.8776 319.185 22.4926C319.397 22.1183 319.51 21.6953 319.511 21.2648C319.51 20.8308 319.397 20.4044 319.185 20.0261C318.969 19.6406 318.649 19.3242 318.261 19.1133C317.889 18.9054 317.47 18.7969 317.044 18.7982ZM315.75 22.8947V19.7109H316.837C317.108 19.7006 317.379 19.7299 317.641 19.7979C317.807 19.8542 317.949 19.9653 318.044 20.113C318.14 20.2497 318.194 20.4126 318.196 20.5802C318.195 20.808 318.106 21.0265 317.946 21.1887C317.769 21.3638 317.532 21.4648 317.283 21.4712C317.383 21.5124 317.475 21.5713 317.554 21.6451C317.734 21.8361 317.891 22.0476 318.022 22.2753L318.413 22.8947H317.783L317.5 22.3948C317.367 22.1192 317.187 21.8691 316.967 21.656C316.846 21.5736 316.7 21.5353 316.554 21.5473H316.294V22.8947H315.75ZM316.261 21.1018H316.891C317.103 21.1186 317.314 21.0733 317.5 20.9714C317.553 20.9304 317.595 20.8775 317.623 20.8171C317.652 20.7566 317.665 20.6904 317.663 20.6237C317.661 20.5316 317.635 20.4416 317.587 20.3629C317.53 20.291 317.455 20.235 317.37 20.1999C317.199 20.1568 317.024 20.1385 316.848 20.1456H316.294L316.261 21.1018Z" fill="#1A1A1A"/>
</g>
<defs>
<clipPath id="clip0">
<rect width="320" height="66" fill="white"/>
</clipPath>
</defs>
</svg>
