<!-- This file is a copy of what appears in index.html. It's necessary for the style guide. -->
<svg aria-hidden="true" style="position: absolute; width: 0; height: 0; overflow: hidden;" version="1.1" xmlns="http://www.w3.org/2000/svg" xmlns:xlink="http://www.w3.org/1999/xlink">
  <defs>

    <!-- Close -->
    <symbol id="icon-close" viewBox="0 0 20 20">
      <path d="M10 8.586l-7.071-7.071-1.414 1.414 7.071 7.071-7.071 7.071 1.414 1.414 7.071-7.071 7.071 7.071 1.414-1.414-7.071-7.071 7.071-7.071-1.414-1.414-7.071 7.071z"></path>
    </symbol>

    <!-- Play -->
    <symbol id="icon-play" viewBox="0 0 126 120">
      <path fill-rule="evenodd" clip-rule="evenodd" d="M62.9998 0.904907C28.4998 0.904907 0.499786 27.5716 0.499786 60.4287C0.499786 93.2859 28.4998 119.953 62.9998 119.953C97.4998 119.953 125.5 93.2859 125.5 60.4287C125.5 27.5716 97.4998 0.904907 62.9998 0.904907ZM50.4996 87.2143V33.6429L87.9996 60.4286L50.4996 87.2143Z" />
    </symbol>

    <!-- Star -->
    <symbol id="icon-star" viewBox="0 0 32 32">
      <path d="M32 12.408l-11.056-1.607-4.944-10.018-4.944 10.018-11.056 1.607 8 7.798-1.889 11.011 9.889-5.199 9.889 5.199-1.889-11.011 8-7.798z" />
    </symbol>

    <!-- Facebook -->
    <symbol id="icon-facebook" viewBox="0 0 32 32">
      <path d="M31.997 15.999c0-8.836-7.163-15.999-15.999-15.999s-15.999 7.163-15.999 15.999c0 7.985 5.851 14.604 13.499 15.804v-11.18h-4.062v-4.625h4.062v-3.525c0-4.010 2.389-6.225 6.043-6.225 1.75 0 3.581 0.313 3.581 0.313v3.937h-2.017c-1.987 0-2.607 1.233-2.607 2.498v3.001h4.437l-0.709 4.625h-3.728v11.18c7.649-1.2 13.499-7.819 13.499-15.804z" />
    </symbol>

    <!-- Instagram -->
    <symbol id="icon-instagram" viewBox="0 0 32 32">
      <path d="M16 0c-4.347 0-4.889 0.020-6.596 0.096-1.704 0.080-2.864 0.348-3.884 0.744-1.052 0.408-1.945 0.956-2.835 1.845s-1.439 1.781-1.845 2.835c-0.396 1.020-0.665 2.18-0.744 3.884-0.080 1.707-0.096 2.249-0.096 6.596s0.020 4.889 0.096 6.596c0.080 1.703 0.348 2.864 0.744 3.884 0.408 1.051 0.956 1.945 1.845 2.835 0.889 0.888 1.781 1.439 2.835 1.845 1.021 0.395 2.181 0.665 3.884 0.744 1.707 0.080 2.249 0.096 6.596 0.096s4.889-0.020 6.596-0.096c1.703-0.080 2.864-0.349 3.884-0.744 1.051-0.408 1.945-0.957 2.835-1.845 0.888-0.889 1.439-1.78 1.845-2.835 0.395-1.020 0.665-2.181 0.744-3.884 0.080-1.707 0.096-2.249 0.096-6.596s-0.020-4.889-0.096-6.596c-0.080-1.703-0.349-2.865-0.744-3.884-0.408-1.052-0.957-1.945-1.845-2.835-0.889-0.889-1.78-1.439-2.835-1.845-1.020-0.396-2.181-0.665-3.884-0.744-1.707-0.080-2.249-0.096-6.596-0.096zM16 2.88c4.271 0 4.78 0.021 6.467 0.095 1.56 0.073 2.407 0.332 2.969 0.553 0.749 0.289 1.28 0.636 1.843 1.195 0.559 0.56 0.905 1.092 1.195 1.841 0.219 0.563 0.48 1.409 0.551 2.969 0.076 1.688 0.093 2.195 0.093 6.467s-0.020 4.78-0.099 6.467c-0.081 1.56-0.341 2.407-0.561 2.969-0.299 0.749-0.639 1.28-1.199 1.843-0.559 0.559-1.099 0.905-1.84 1.195-0.56 0.219-1.42 0.48-2.98 0.551-1.699 0.076-2.199 0.093-6.479 0.093-4.281 0-4.781-0.020-6.479-0.099-1.561-0.081-2.421-0.341-2.981-0.561-0.759-0.299-1.28-0.639-1.839-1.199-0.561-0.559-0.92-1.099-1.2-1.84-0.22-0.56-0.479-1.42-0.56-2.98-0.060-1.68-0.081-2.199-0.081-6.459 0-4.261 0.021-4.781 0.081-6.481 0.081-1.56 0.34-2.419 0.56-2.979 0.28-0.76 0.639-1.28 1.2-1.841 0.559-0.559 1.080-0.919 1.839-1.197 0.56-0.221 1.401-0.481 2.961-0.561 1.7-0.060 2.2-0.080 6.479-0.080zM16 7.784c-4.54 0-8.216 3.68-8.216 8.216 0 4.54 3.68 8.216 8.216 8.216 4.54 0 8.216-3.68 8.216-8.216 0-4.54-3.68-8.216-8.216-8.216zM16 21.333c-2.947 0-5.333-2.387-5.333-5.333s2.387-5.333 5.333-5.333 5.333 2.387 5.333 5.333-2.387 5.333-5.333 5.333zM26.461 7.46c0 1.060-0.861 1.92-1.92 1.92-1.060 0-1.92-0.861-1.92-1.92s0.861-1.919 1.92-1.919c1.057-0.001 1.92 0.86 1.92 1.919z" />
    </symbol>

    <!-- LinkedIn -->
    <symbol id="icon-linkedin" viewBox="0 0 32 32">
      <path d="M27.263 27.269h-4.739v-7.425c0-1.771-0.036-4.049-2.469-4.049-2.471 0-2.848 1.927-2.848 3.919v7.556h-4.739v-15.269h4.552v2.081h0.061c0.636-1.2 2.183-2.467 4.493-2.467 4.801 0 5.689 3.16 5.689 7.273zM7.116 9.911c-1.525 0-2.751-1.235-2.751-2.753 0-1.517 1.227-2.751 2.751-2.751 1.52 0 2.752 1.233 2.752 2.751 0 1.519-1.233 2.753-2.752 2.753zM9.492 27.269h-4.752v-15.269h4.752zM29.633 0h-27.272c-1.305 0-2.361 1.032-2.361 2.305v27.389c0 1.275 1.056 2.305 2.361 2.305h27.268c1.304 0 2.371-1.031 2.371-2.305v-27.389c0-1.273-1.067-2.305-2.371-2.305z" />
    </symbol>

    <!-- Twitter -->
    <symbol id="icon-twitter" viewBox="0 0 32 32">
      <path d="M31.939 6.092c-1.18 0.519-2.44 0.872-3.767 1.033 1.352-0.815 2.392-2.099 2.884-3.631-1.268 0.74-2.673 1.279-4.169 1.579-1.195-1.279-2.897-2.079-4.788-2.079-3.623 0-6.56 2.937-6.56 6.556 0 0.52 0.060 1.020 0.169 1.499-5.453-0.257-10.287-2.876-13.521-6.835-0.569 0.963-0.888 2.081-0.888 3.3 0 2.28 1.16 4.284 2.917 5.461-1.076-0.035-2.088-0.331-2.971-0.821v0.081c0 3.18 2.257 5.832 5.261 6.436-0.551 0.148-1.132 0.228-1.728 0.228-0.419 0-0.82-0.040-1.221-0.115 0.841 2.604 3.26 4.503 6.139 4.556-2.24 1.759-5.079 2.807-8.136 2.807-0.52 0-1.039-0.031-1.56-0.089 2.919 1.859 6.357 2.945 10.076 2.945 12.072 0 18.665-9.995 18.665-18.648 0-0.279 0-0.56-0.020-0.84 1.281-0.919 2.4-2.080 3.28-3.397z" />
    </symbol>

    <!-- YouTube -->
    <symbol id="icon-youtube" viewBox="0 0 32 32">
      <path d="M31.327 8.273c-0.386-1.353-1.431-2.398-2.756-2.777l-0.028-0.007c-2.493-0.668-12.528-0.668-12.528-0.668s-10.009-0.013-12.528 0.668c-1.353 0.386-2.398 1.431-2.777 2.756l-0.007 0.028c-0.443 2.281-0.696 4.903-0.696 7.585 0 0.054 0 0.109 0 0.163l-0-0.008c-0 0.037-0 0.082-0 0.126 0 2.682 0.253 5.304 0.737 7.845l-0.041-0.26c0.386 1.353 1.431 2.398 2.756 2.777l0.028 0.007c2.491 0.669 12.528 0.669 12.528 0.669s10.008 0 12.528-0.669c1.353-0.386 2.398-1.431 2.777-2.756l0.007-0.028c0.425-2.233 0.668-4.803 0.668-7.429 0-0.099-0-0.198-0.001-0.297l0 0.015c0.001-0.092 0.001-0.201 0.001-0.31 0-2.626-0.243-5.196-0.708-7.687l0.040 0.258zM12.812 20.801v-9.591l8.352 4.803z" />
    </symbol>

    <!-- Earth -->
    <symbol id="icon-earth" viewBox="0 0 32 32">
      <path d="M16 0c-8.837 0-16 7.163-16 16s7.163 16 16 16 16-7.163 16-16-7.163-16-16-16zM16 30c-1.967 0-3.84-0.407-5.538-1.139l7.286-8.197c0.163-0.183 0.253-0.419 0.253-0.664v-3c0-0.552-0.448-1-1-1-3.531 0-7.256-3.671-7.293-3.707-0.188-0.188-0.442-0.293-0.707-0.293h-4c-0.552 0-1 0.448-1 1v6c0 0.379 0.214 0.725 0.553 0.894l3.447 1.724v5.871c-3.627-2.53-6-6.732-6-11.489 0-2.147 0.484-4.181 1.348-6h3.652c0.265 0 0.52-0.105 0.707-0.293l4-4c0.188-0.188 0.293-0.442 0.293-0.707v-2.419c1.268-0.377 2.61-0.581 4-0.581 2.2 0 4.281 0.508 6.134 1.412-0.13 0.109-0.256 0.224-0.376 0.345-1.133 1.133-1.757 2.64-1.757 4.243s0.624 3.109 1.757 4.243c1.139 1.139 2.663 1.758 4.239 1.758 0.099 0 0.198-0.002 0.297-0.007 0.432 1.619 1.211 5.833-0.263 11.635-0.014 0.055-0.022 0.109-0.026 0.163-2.541 2.596-6.084 4.208-10.004 4.208z" />
    </symbol>

    <!-- Equal Housing Lender -->
    <symbol id="icon-equal-housing" viewBox="0 0 150.47 163.16">
      <path d="m66.991 150.54h-0.057l-8.54-17.551h-4.734v25.198h4.191v-17.967h0.062l8.778 17.967h4.497v-25.198h-4.197v17.55zm-20.1-35.23l-3.875 13.473h2.393l0.757-2.774h4.01l0.698 2.774h2.463l-3.826-13.473h-2.62zm-0.122 8.37l1.39-5.327h0.035l1.344 5.327h-2.769zm-15.649-1.63c0-6.328-3.783-7.091-5.225-7.091-1.433 0-5.222 0.763-5.222 7.091 0 6.322 3.789 7.09 5.222 7.09 0.638 0 1.758-0.151 2.788-0.903l1.284 1.521 1.195-1.521-1.179-1.39c0.666-1.05 1.137-2.59 1.137-4.8zm-2.769 2.89l-1.152-1.336-1.163 1.525 1.09 1.271c-0.409 0.266-0.847 0.357-1.23 0.357-1.222 0-2.95-0.936-2.95-4.705 0-3.775 1.728-4.711 2.95-4.711 1.23 0 2.953 0.936 2.953 4.711-0.001 1.27-0.195 2.2-0.498 2.9zm26.444-9.63v13.473h7.669v-2.439h-5.397v-11.033h-2.272zm24.092 13.47h2.263v-13.473h-2.263v5.101h-4.243v-5.101h-2.271v13.473h2.271v-6.041h4.243v6.04zm-42.607 18.43h10.484v-4.462h-10.484v-5.3h11.414v-4.457h-15.822v25.198h16.333v-4.451h-11.925v-6.53zm-17.223-29.51v-2.385h-7.991v13.473h8.245v-2.386h-6.025v-3.488h5.3v-2.38h-5.3v-2.834h5.771zm-3.002 15.29h-4.492v25.198h15.192v-4.56h-10.7v-20.64zm16.82-17.68v8.93c0.027 1.352 0.254 2.444 0.846 3.267 0.971 1.33 2.453 1.633 3.451 1.633 2.742 0 4.465-1.52 4.465-5.067v-8.762h-2.315v8.875c0 1.634-0.638 2.569-2.193 2.569-1.057 0-1.938-0.827-1.938-2.699v-8.745h-2.316zm83.125 13.47h2.271v-13.473h-2.271v13.47zm24.19 23.73c0-4.711-0.963-5.479-2.731-6.393 2.129-0.844 3.329-3.229 3.329-6.004 0-2.174-1.052-7.123-6.771-7.123h-10.879v25.198h4.402v-9.865h4.648c3.321 0 3.505 1.336 3.505 4.775 0 2.597 0.179 3.899 0.476 5.09h4.979v-0.665c-0.97-0.44-0.97-1.35-0.97-5.03zm-7.37-8.43h-5.278v-6.738h5.606c2.636 0 3.145 1.963 3.145 3.299-0.01 2.5-1.14 3.44-3.48 3.44zm-22.82-17.27c-1.982 0-2.285-1.422-2.304-2.169h-2.175c0 1.666 0.679 4.5 4.646 4.5 0.952 0 4.281-0.356 4.281-4.413 0-2.418-1.363-3.169-2.848-3.618l-2.647-0.806c-0.454-0.136-1.146-0.357-1.146-1.406 0-1.217 1.025-1.612 1.891-1.612 1.981 0 2.166 1.423 2.226 2.023h2.177c-0.011-1.655-0.909-4.349-4.237-4.349-3.526 0-4.176 2.64-4.176 4.143 0 2.964 1.695 3.456 3.45 3.959l1.163 0.336c1.152 0.341 1.972 0.622 1.972 1.671 0.02 1.44-1.18 1.75-2.26 1.75zm19.13 1.97v-13.473h-2.12v9.384h-0.026l-4.316-9.384h-2.393v13.473h2.122v-9.605h0.027l4.435 9.605h2.27zm7.13-11.49c1.606 0 2.382 1.688 2.382 2.207h2.264c-0.116-1.855-1.434-4.532-4.762-4.532-3.667-0.021-5.316 3.45-5.316 7.128 0 4.722 2.374 7.053 4.994 7.053 1.982 0 2.82-1.222 3.392-2.05l0.227 1.693h1.518v-7.264h-4.543v2.271h2.525c-0.471 2.721-2.131 2.964-2.631 2.964-1.545 0-3.161-0.952-3.161-4.63 0-3.46 1.49-4.84 3.11-4.84zm-32.4 6.78v-8.762h-2.315v8.875c0 1.634-0.635 2.569-2.192 2.569-1.063 0-1.939-0.827-1.939-2.699v-8.745h-2.314v8.93c0.026 1.352 0.254 2.444 0.849 3.267 0.969 1.33 2.447 1.633 3.448 1.633 2.738 0.01 4.468-1.51 4.468-5.06zm1.69 23.14h10.489v-4.462h-10.489v-5.3h11.414v-4.457h-15.816v25.198h16.325v-4.451h-11.923v-6.53zm-12.209-25.16c0-6.328-3.789-7.091-5.223-7.091-1.441 0-5.224 0.763-5.224 7.091 0 6.322 3.782 7.09 5.224 7.09 1.434 0 5.223-0.77 5.223-7.09zm-8.174 0c0-3.775 1.728-4.711 2.952-4.711 1.223 0 2.951 0.936 2.951 4.711 0 3.77-1.729 4.705-2.951 4.705-1.225 0-2.952-0.94-2.952-4.71zm1.838 10.94h-9.498v25.198h9.322c7.098 0 8.926-7.794 8.926-13.196 0-4.77-1.495-12-8.75-12zm-0.719 20.85h-4.375v-16.495h4.318c1.917 0 4.94 0.595 4.94 8.036 0 4.15-1.23 8.46-4.883 8.46zm-11.399-150.49l-69.782 35.722v14.538l7.721 0.103v52.062h123.6l-0.065-52.164h8.308v-14.536l-69.783-35.722zm47.773 88.675h-96.083v-46.306l48.311-24.921 47.768 24.921v46.306zm-70.618-34.137h45.273v-12.504h-45.273v12.504zm0 22.488h45.07v-12.504h-45.07v12.504z" />
    </symbol>
    
    <!-- National Assn. of Realtors -->
    <symbol id="icon-realtor" viewBox="0 0 37.613 43.787">
      <path d="M.625 38.577h.82c.532 0 .93 0 1.24.279.27.246.406.573.406.97 0 .645-.477 1.12-1.21 1.12H1.35l1.678 2.729h.66l-1.368-2.211c.796-.057 1.368-.787 1.368-1.646 0-.589-.278-1.154-.732-1.471-.398-.28-.827-.326-1.36-.326H.076v5.654h.549v-5.098M6.32 40.557v-1.98h2.378v-.556H5.764v5.654h2.934v-.548H6.32v-2.014h2.378v-.556H6.32M10.811 43.675l.676-1.774H14l.676 1.774h.597l-2.187-5.654h-.669l-2.194 5.654h.588zm2.998-2.283h-2.131l1.058-2.838 1.073 2.838M19.43 43.675v-.548h-1.988V38.02h-.557v5.654h2.545M22.226 43.675v-5.098h1.129v-.556H20.54v.556h1.13v5.098h.556M25.117 40.819c0-.691.335-1.39.867-1.845a2.192 2.192 0 011.424-.524c1.312 0 2.33 1.097 2.33 2.354 0 1.392-1.018 2.449-2.29 2.449-1.297 0-2.33-1.034-2.33-2.434zm-.58-.007c0 1.686 1.248 2.975 2.87 2.975.852 0 1.584-.327 2.156-.954.501-.55.747-1.218.747-2.021 0-.804-.293-1.51-.866-2.076a2.788 2.788 0 00-2.028-.827c-.78 0-1.447.279-1.997.82a2.896 2.896 0 00-.882 2.083M32.741 38.577h.819c.533 0 .931 0 1.241.279.27.246.405.573.405.97 0 .645-.477 1.12-1.209 1.12h-.532l1.678 2.729h.66l-1.368-2.211c.796-.057 1.367-.787 1.367-1.646 0-.589-.277-1.154-.73-1.471-.399-.28-.828-.326-1.361-.326h-1.518v5.654h.548v-5.098M19.14 31.51V17.982l14.075 13.53zm-3.891-.041H5.099V4.275h10.15zM19.14 4.317h4.013c3.702.376 6.388 3.27 6.356 6.849-.032 3.545-2.689 6.358-6.356 6.731l-4.013-.003zM0-.003v36h36v-36H0M36.591 37.513c.232 0 .338.06.338.217 0 .16-.106.206-.338.206h-.22v-.423h.22zm.034-.12h-.431v1.178h.177v-.517h.275l.249.517h.203l-.265-.543c.172-.024.279-.146.279-.309 0-.227-.161-.326-.487-.326zm.88.608c0 .25-.088.47-.259.636a.932.932 0 01-.652.27.9.9 0 01-.64-.267.9.9 0 01.006-1.29.91.91 0 011.287.005.903.903 0 01.258.646zm-.911-1.026a.984.984 0 00-.715.294c-.197.202-.306.461-.306.73 0 .272.107.526.301.72a.998.998 0 00.72.304c.268 0 .528-.109.729-.307a.985.985 0 00.294-.717c0-.275-.102-.531-.294-.723a1.001 1.001 0 00-.73-.3" />
    </symbol>

  </defs>
</svg>