<svg xmlns="http://www.w3.org/2000/svg" xmlns:xlink="http://www.w3.org/1999/xlink">
    <defs>

        <!-- Facebook -->
        <g id="facebook"> <!-- viewBox="0 0 1365 1365"> -->
            <path d="M1365.333 682.667C1365.333 305.64 1059.693 0 682.667 0 305.64 0 0 305.64 0 682.667c0 340.738 249.641 623.16 576 674.373V880H402.667V682.667H576v-150.4c0-171.094 101.917-265.6 257.853-265.6 74.69 0 152.814 13.333 152.814 13.333v168h-86.083c-84.804 0-111.25 52.623-111.25 106.61v128.057h189.333L948.4 880H789.333v477.04c326.359-51.213 576-333.635 576-674.373" fill="#212121"/> <!-- fill="#100f0d" -->
            <path d="M948.4 880l30.267-197.333H789.333V554.609C789.333 500.623 815.78 448 900.584 448h86.083V280s-78.124-13.333-152.814-13.333c-155.936 0-257.853 94.506-257.853 265.6v150.4H402.667V880H576v477.04a687.805 687.805 0 00106.667 8.293c36.288 0 71.91-2.84 106.666-8.293V880H948.4" fill="#FFFFFF"/>
        </g>

        <!-- Instagram -->
        <g id="instagram"> <!-- viewBox="0 0 672 672"> -->
            <path d="M335.895-.001c-91.224 0-102.663.386-138.49 2.021-35.752 1.63-60.169 7.31-81.535 15.612-22.088 8.584-40.82 20.07-59.493 38.743-18.674 18.673-30.16 37.406-38.743 59.494C9.33 137.235 3.653 161.652 2.02 197.404.386 233.231 0 244.669 0 335.894c0 91.222.386 102.66 2.02 138.487 1.633 35.752 7.31 60.17 15.614 81.535 8.584 22.088 20.07 40.82 38.743 59.495 18.674 18.673 37.405 30.158 59.493 38.742 21.366 8.303 45.783 13.982 81.535 15.612 35.827 1.635 47.266 2.022 138.49 2.022 91.222 0 102.661-.387 138.488-2.022 35.752-1.63 60.169-7.31 81.534-15.612 22.088-8.584 40.82-20.069 59.495-38.742 18.673-18.675 30.159-37.407 38.743-59.495 8.302-21.365 13.981-45.783 15.612-81.535 1.634-35.826 2.021-47.265 2.021-138.488 0-91.224-.387-102.662-2.021-138.489-1.631-35.752-7.31-60.17-15.612-81.535-8.584-22.088-20.07-40.821-38.743-59.494-18.675-18.674-37.407-30.159-59.495-38.743-21.365-8.303-45.782-13.981-81.534-15.612C438.556.385 427.117-.001 335.895-.001zm0 60.521c89.686 0 100.31.343 135.729 1.959 32.75 1.493 50.535 6.965 62.37 11.565 15.68 6.093 26.869 13.372 38.622 25.125 11.755 11.755 19.033 22.944 25.127 38.623 4.6 11.836 10.072 29.621 11.565 62.37 1.616 35.42 1.959 46.043 1.959 135.731 0 89.687-.343 100.311-1.959 135.73-1.493 32.749-6.965 50.534-11.565 62.37-6.094 15.68-13.372 26.868-25.127 38.622-11.753 11.754-22.943 19.033-38.621 25.126-11.836 4.6-29.622 10.072-62.371 11.565-35.413 1.617-46.036 1.96-135.73 1.96-89.694 0-100.315-.343-135.73-1.96-32.75-1.493-50.535-6.965-62.37-11.565-15.68-6.093-26.869-13.372-38.622-25.126-11.754-11.754-19.033-22.943-25.127-38.622-4.6-11.836-10.071-29.621-11.565-62.37-1.616-35.419-1.959-46.043-1.959-135.73 0-89.688.343-100.312 1.959-135.73 1.494-32.75 6.965-50.535 11.565-62.371 6.094-15.679 13.373-26.868 25.126-38.621 11.754-11.755 22.944-19.034 38.622-25.127 11.836-4.6 29.622-10.072 62.371-11.565 35.419-1.616 46.043-1.959 135.73-1.959"/>
            <path d="M335.895 447.857c-61.838 0-111.966-50.128-111.966-111.964 0-61.837 50.128-111.965 111.966-111.965 61.836 0 111.964 50.128 111.964 111.965 0 61.836-50.128 111.964-111.964 111.964zm0-284.45c-95.263 0-172.487 77.224-172.487 172.486 0 95.262 77.224 172.486 172.487 172.486 95.261 0 172.485-77.224 172.485-172.486 0-95.262-77.224-172.486-172.485-172.486M555.503 156.592c0 22.261-18.047 40.307-40.308 40.307-22.26 0-40.307-18.046-40.307-40.307 0-22.261 18.047-40.308 40.307-40.308 22.261 0 40.308 18.047 40.308 40.308"/>
        </g>

        <!-- Twitter -->
        <g id="twitter"> <!-- viewBox="0 0 533 533"> -->
            <path d="M204.83 402.119c125.793 0 194.582-104.215 194.582-194.582 0-2.961-.06-5.909-.196-8.841a139.13 139.13 0 0034.117-35.41c-12.254 5.443-25.441 9.113-39.274 10.766 14.12-8.464 24.96-21.861 30.072-37.83a137.051 137.051 0 01-43.424 16.6c-12.479-13.293-30.252-21.607-49.919-21.607-37.77 0-68.399 30.628-68.399 68.384 0 5.368.602 10.585 1.774 15.593-56.836-2.857-107.236-30.072-140.962-71.452a68.145 68.145 0 00-9.263 34.372c0 23.728 12.075 44.673 30.433 56.927a67.881 67.881 0 01-30.974-8.556c-.015.285-.015.572-.015.872 0 33.125 23.577 60.776 54.866 67.046a68.58 68.58 0 01-18.028 2.406c-4.405 0-8.69-.436-12.856-1.234 8.707 27.171 33.952 46.943 63.888 47.5-23.41 18.343-52.896 29.274-84.938 29.274-5.518 0-10.961-.315-16.314-.947 30.267 19.396 66.204 30.719 104.83 30.719" fill="#212121"/> <!-- fill="#569cda" -->
        </g>

        <!-- YouTube -->
        <g id="youtube"> <!-- viewBox="0 0 165 235"> -->
            <path d="M229.763 25.817c-2.699-10.162-10.65-18.165-20.747-20.881C190.716 0 117.333 0 117.333 0S43.951 0 25.651 4.936C15.554 7.652 7.602 15.655 4.904 25.817 0 44.237 0 82.667 0 82.667s0 38.43 4.904 56.85c2.698 10.162 10.65 18.164 20.747 20.881 18.3 4.935 91.682 4.935 91.682 4.935s73.383 0 91.683-4.935c10.097-2.717 18.048-10.72 20.747-20.88 4.904-18.422 4.904-56.851 4.904-56.851s0-38.43-4.904-56.85" fill="#212121"/> <!-- fill="#252323" -->
            <path d="M93.333 117.558l61.334-34.89-61.334-34.893z" fill="#FFFFFF"/>
        </g>

    </defs>
</svg>